<svg xmlns="http://www.w3.org/2000/svg" viewBox="0 0 1200 500"><defs><radialGradient id="bg" cx="50%" cy="45%"><stop offset="0" stop-color="#6f286f"/><stop offset=".48" stop-color="#2b0d43"/><stop offset="1" stop-color="#090313"/></radialGradient><radialGradient id="glow"><stop stop-color="#ffb5a4" stop-opacity=".95"/><stop offset="1" stop-color="#8a235f" stop-opacity="0"/></radialGradient><linearGradient id="card" x2="0" y2="1"><stop stop-color="#172343"/><stop offset="1" stop-color="#25123f"/></linearGradient><filter id="blur"><feGaussianBlur stdDeviation="18"/></filter><filter id="shadow"><feDropShadow dx="0" dy="12" stdDeviation="14" flood-color="#000" flood-opacity=".65"/></filter></defs><rect width="1200" height="500" fill="url(#bg)"/><ellipse cx="600" cy="245" rx="330" ry="180" fill="#7c3d86" opacity=".3" filter="url(#blur)"/><g fill="#e7c76e" opacity=".9"><circle cx="430" cy="115" r="3"/><circle cx="790" cy="125" r="3"/><circle cx="360" cy="220" r="3"/><circle cx="845" cy="220" r="3"/><path d="M385 145l8 18 18 8-18 8-8 18-8-18-18-8 18-8z"/><path d="M815 165l7 16 16 7-16 7-7 16-7-16-16-7 16-7z"/></g><g transform="translate(80 170)"><ellipse cx="75" cy="210" rx="105" ry="42" fill="#190716"/><rect x="20" y="80" width="110" height="105" rx="18" fill="#6d3a2c"/><path d="M28 95h94M35 120h80M35 150h80" stroke="#a86d45" stroke-width="6" opacity=".55"/><path d="M75 82C60 62 70 30 75 8c8 28 25 48 0 74z" fill="#fff2bd"/><path d="M75 68C68 48 76 34 78 24c7 16 14 29-3 44z" fill="#ff9a46"/></g><g transform="translate(1020 80)"><path d="M20 50h110v220H20z" fill="#3a2143" stroke="#c99345" stroke-width="5"/><path d="M35 50V25h80v25M35 270v25h80v-25" fill="none" stroke="#c99345" stroke-width="5"/><path d="M42 85h66v145H42z" fill="#ffb75d" opacity=".55"/><path d="M75 120c-20 35-15 55 0 70 15-15 20-35 0-70z" fill="#fff1b5"/></g><g filter="url(#shadow)" transform="translate(490 55)"><rect width="220" height="330" rx="14" fill="url(#card)" stroke="#c9a75f" stroke-width="7"/><rect x="12" y="12" width="196" height="306" rx="9" fill="none" stroke="#e0bd70" stroke-width="2" opacity=".75"/><path d="M110 45v240M35 165h150" stroke="#d6b15e" opacity=".45"/><ellipse cx="110" cy="165" rx="95" ry="105" fill="url(#glow)"/><path d="M110 92c-18-28-63-18-63 18 0 38 40 63 63 82 23-19 63-44 63-82 0-36-45-46-63-18z" fill="#ff6b8d" stroke="#ffe3a5" stroke-width="6"/><path d="M110 125c-10-16-34-10-34 10 0 19 21 31 34 42 13-11 34-23 34-42 0-20-24-26-34-10z" fill="none" stroke="#ffe6b0" stroke-width="5"/></g><g transform="translate(75 315)" fill="#6f071d"><path d="M0 70C35 5 100 0 145 30 105 55 55 75 0 70z"/><path d="M10 75C45 30 100 25 160 50 105 92 50 100 10 75z"/><circle cx="80" cy="60" r="32" fill="#9e122d"/><path d="M55 60c15-40 45-38 58-10-17-7-30-2-40 15z" fill="#d12a45"/></g><g fill="#f5d37b" font-family="Georgia,serif" text-anchor="middle"><text x="600" y="435" font-size="38" letter-spacing="4">TAROT DEL AMOR</text><text x="600" y="468" font-size="17" letter-spacing="6">DE LILIANA</text></g></svg>